<svg width="800" height="600" xmlns="http://www.w3.org/2000/svg">
 <g>
<image x="95" y="160" width="240" height="240" xlink:href="ICON_ONE" />
<!--
<line x1="50" y1="490" x2="345" y2="490" style="stroke:rgb(0,0,0);stroke-width:4" />
-->
<text font-size="20px" y="580" x="10" text-anchor="start" >W</text>
<image x="35" y="550" width="320" height="30" xlink:href="wind-script-output.png" />
<text font-size="20px" y="540" x="10" text-anchor="start" >H</text>
<image x="35" y="510" width="320" height="30" xlink:href="humid-script-output.png" />
<text font-size="20px" y="500" x="10" text-anchor="start" >P</text>
<image x="35" y="470" width="320" height="30" xlink:href="percip-script-output.png" />
<text font-size="20px" y="460" x="10" text-anchor="start" >T</text>
<image x="35" y="430" width="320" height="30" xlink:href="temp-script-output.png" />
<title>Weather</title>
  <g font-family="DejaVu Sans" id="weather">
  <!--
   <text font-size="15px" y="415" x="735" text-anchor="start" id="svg_167">UNIT</text>
   -->
   <text font-size="75" y="50" x="5" text-anchor="start" id="svg_276">CITY</text>
   <text font-size="40px" y="420" x="220" text-anchor="middle" id="svg_25">STATUS</text>

   <text font-size="45" y="95" x="5" text-anchor="start" id="svg_276">SUMMARY</text>


   <text font="DejaVuSans-ExtraLight" font-size="60px" y="48" x="750" text-anchor="end" id="svg_2">TODAY</text>
   <text font="DejaVuSans-ExtraLight" font-size="60px" y="48" x="420" text-anchor="start" id="svg_2">FORECAST_DAY_01</text>
   <!-- OOOOOOOOOOOOOOOOOOOOOOO -->
	 <image x="330" y="175" width="50" height="50" xlink:href="UPDOWN" />
	 <text x="180" y="165" font-size="60px">UVINDEX</text> 
   <text font-size="150px" y="300" x="480" text-anchor="middle" id="svg_6">HIGH_ONE°</text>
   <text font-size="70px" y="250" x="700" text-anchor="middle" id="svg_6">PRECIP_TXT%</text>
   <!-- OOOOOOOOOOOOOOOOOOOOOOO -->
   <text fill="black" font-size="60px" y="450" x="415" text-anchor="start" id="svg_8">FORECAST_DAY_02</text>
   <text fill="black" font-size="60px" y="450" x="545" text-anchor="start" id="svg_8">FORECAST_HILO_02</text>
	 <image x="710" y="385" width="80" height="80" xlink:href="ICON_02" />

   <text fill="black" font-size="60px" y="520" x="415" text-anchor="start" id="svg_8">FORECAST_DAY_03</text>
   <text fill="black" font-size="60px" y="520" x="545" text-anchor="start" id="svg_8">FORECAST_HILO_03</text>
	 <image x="710" y="455" width="80" height="80" xlink:href="ICON_03" />

   <text fill="black" font-size="60px" y="590" x="415" text-anchor="start" id="svg_8">FORECAST_DAY_04</text>
   <text fill="black" font-size="60px" y="590" x="545" text-anchor="start" id="svg_8">FORECAST_HILO_04</text>
	 <image x="710" y="530" width="80" height="80" xlink:href="ICON_04" />
   <!-- OOOOOOOOOOOOOOOOOOOOOOO -->


   <text fill="black" font-size="75px" y="380" x="5" text-anchor="start" id="svg_8">FEELS_LIKE°</text>

<!-- EXPERIMENTAL -->
<!--
	 <image x="530" y="110" width="60" height="60" xlink:href="assets/Sun_icon.jpg" />
	 <image x="328" y="120" width="60" height="40" xlink:href="assets/Cloud_icon.jpg" />
	 -->
	 
<!--
	 <image x="50" y="510" width="80" height="80" xlink:href="phase.png"/>
	 <image x="165" y="500" width="100" height="100" xlink:href="ICON_01" />
	 -->
   <text fill="black" font-size="30px" x="5" y="260" text-anchor="start" id="svg_8">HOUR</text>

   <!-- OOOOOOOOOOOOOOOOOOOOOOO -->
	 <image x="360" y="110" width="160" height="70" xlink:href="ICON_BAR" />
	 <image x="540" y="105" width="70" height="70" xlink:href="CLOUD_COV_ICON" />
	 <image x="620" y="100" width="120" height="80" xlink:href="PRECIPER"/>
   <!-- OOOOOOOOOOOOOOOOOOOOOOO -->
	 <image x="345" y="400" width="70" height="190" xlink:href="DEW_POINT_ICON" />
   <!-- OOOOOOOOOOOOOOOOOOOOOOO -->
   <text fill="black" font-size="80px" y="380" x="350" text-anchor="start" id="svg_8">FORECAST_HILO_01</text>
	 <image x="575" y="300" width="40" height="40" xlink:href="HUPDOWN" />
   <text font-size="80px" y="360" x="660" text-anchor="middle" id="svg_6">HUMID</text>
	 <image x="700" y="310" width="60" height="60" xlink:href="assets/humidity.png" />
   <!-- OOOOOOOOOOOOOOOOOOOOOOO -->

   <line x1="390" y1="395" x2="765" y2="395" style="stroke:rgb(0,0,0);stroke-width:4" />
<!-- EXPERIMENTAL -->


	 <!--
	 <image x="ANCHOR_150" y="110" width="70" height="66" xlink:href="assets/wind_icon.png" />
	 -->
	 <image x="253" y="117" width="80" height="80" xlink:href="sunrise-script-output.png" />
	 <image x="234" y="95" width="650" height="650" xlink:href="draw_arc_partial.png" />


	 <image x="ANCHOR_150" y="120" width="50" height="50" xlink:href="WIND_DIR_ICON" />

   <text font-size="75" y="180" x="5" text-anchor="start" id="svg_276">WIND</text>

  </g>
 </g>
</svg>
